<svg width="32" height="32" viewBox="0 0 32 32" fill="none" xmlns="http://www.w3.org/2000/svg">
  <!-- Background circle -->
  <circle cx="16" cy="16" r="16" fill="#4F46E5"/>
  
  <!-- Graduation cap -->
  <path d="M8 12L16 8L24 12L16 16L8 12Z" fill="white"/>
  <path d="M8 12V20C8 20 12 22 16 22C20 22 24 20 24 20V12" stroke="white" stroke-width="1.5" stroke-linecap="round" stroke-linejoin="round"/>
  
  <!-- Book -->
  <rect x="10" y="18" width="12" height="8" rx="1" fill="#FBBF24"/>
  <rect x="11" y="19" width="10" height="6" rx="0.5" fill="white"/>
  <line x1="13" y1="21" x2="19" y2="21" stroke="#6B7280" stroke-width="0.5"/>
  <line x1="13" y1="22.5" x2="17" y2="22.5" stroke="#6B7280" stroke-width="0.5"/>
  
  <!-- Pencil -->
  <path d="M22 10L26 6L26 8L22 12L20 10L22 10Z" fill="#EF4444"/>
  <path d="M20 10L22 12" stroke="#DC2626" stroke-width="0.5"/>
  
  <!-- Small decorative dots -->
  <circle cx="12" cy="14" r="1" fill="white" opacity="0.7"/>
  <circle cx="20" cy="14" r="1" fill="white" opacity="0.7"/>
</svg> 